<svg width="74" height="74" viewBox="0 0 74 74" fill="none" xmlns="http://www.w3.org/2000/svg">
<rect width="74" height="74" rx="37" fill="url(#paint0_linear_1_156)"/>
<g clip-path="url(#clip0_1_156)">
<path d="M23.0645 51.6967H39V50.4706H23.0645C22.049 50.4706 21.2258 49.6474 21.2258 48.6319V21.6642C21.2258 20.6484 22.049 19.8255 23.0645 19.8255H50.0322C51.0481 19.8255 51.8709 20.6484 51.8709 21.6642V35.7609H53.097V21.6642C53.095 19.9725 51.7241 18.6017 50.0322 18.5997H23.0645C21.3731 18.6017 20.0022 19.9725 20 21.6642V48.6319C20.0022 50.3236 21.3731 51.6944 23.0645 51.6967Z" fill="black"/>
<path d="M22.4518 21.0515H23.6774V22.2771H22.4518V21.0515Z" fill="black"/>
<path d="M24.9032 21.0515H26.1293V22.2771H24.9032V21.0515Z" fill="black"/>
<path d="M27.3549 21.0515H28.5808V22.2771H27.3549V21.0515Z" fill="black"/>
<path d="M22.4518 23.5029H50.6451V24.729H22.4518V23.5029Z" fill="black"/>
<path d="M28.7602 26.1342L27.2034 27.691C25.8875 26.8198 24.1253 27.0871 23.1266 28.3093C22.128 29.5314 22.2176 31.3115 23.3335 32.4273C24.4493 33.5435 26.2296 33.6331 27.4518 32.6344C28.6739 31.6358 28.9413 29.8733 28.07 28.5577L29.6266 27.0009L28.7602 26.1342ZM25.5159 32.0835C24.5006 32.0835 23.6773 31.2604 23.6773 30.2449C23.6773 29.2293 24.5006 28.4064 25.5159 28.4064C25.7893 28.4073 26.0583 28.47 26.3036 28.59L25.0828 29.8109L25.9492 30.6777L27.171 29.4575C27.291 29.7026 27.3538 29.9716 27.3547 30.2449C27.3547 31.2604 26.5318 32.0835 25.5159 32.0835Z" fill="black"/>
<path d="M30.4192 28.4064H40.8383V29.632H30.4192V28.4064Z" fill="black"/>
<path d="M30.4192 30.8579H34.7094V32.0835H30.4192V30.8579Z" fill="black"/>
<path d="M35.9355 30.8579H44.516V32.0835H35.9355V30.8579Z" fill="black"/>
<path d="M42.0645 28.4064H48.1935V29.632H42.0645V28.4064Z" fill="black"/>
<path d="M28.7602 33.4889L27.2034 35.0457C25.8875 34.1745 24.1253 34.4418 23.1266 35.664C22.128 36.8862 22.2176 38.6663 23.3335 39.7823C24.4493 40.8982 26.2296 40.9878 27.4518 39.9891C28.6739 38.9904 28.9413 37.2285 28.07 35.9124L29.6266 34.3556L28.7602 33.4889ZM25.5159 39.4384C24.5006 39.4384 23.6773 38.6151 23.6773 37.5997C23.6773 36.5841 24.5006 35.7608 25.5159 35.7608C25.7893 35.7619 26.0583 35.8247 26.3036 35.9447L25.0828 37.166L25.9492 38.0324L27.171 36.812C27.291 37.0574 27.3538 37.3264 27.3547 37.5997C27.3547 38.6151 26.5318 39.4384 25.5159 39.4384Z" fill="black"/>
<path d="M30.4192 35.7609H40.8383V36.9868H30.4192V35.7609Z" fill="black"/>
<path d="M30.4192 38.2126H34.7094V39.4384H30.4192V38.2126Z" fill="black"/>
<path d="M35.9355 38.2126H40.8385V39.4384H35.9355V38.2126Z" fill="black"/>
<path d="M42.0645 35.7609H44.516V36.9868H42.0645V35.7609Z" fill="black"/>
<path d="M28.7602 40.8438L27.2034 42.4006C25.8875 41.5294 24.1253 41.7967 23.1266 43.0189C22.128 44.2411 22.2176 46.0211 23.3335 47.1372C24.4493 48.2533 26.2296 48.3425 27.4518 47.344C28.6739 46.3453 28.9413 44.5832 28.07 43.2671L29.6266 41.7105L28.7602 40.8438ZM25.5159 46.7932C24.5006 46.7932 23.6773 45.97 23.6773 44.9545C23.6773 43.9389 24.5006 43.1158 25.5159 43.1158C25.7893 43.1167 26.0583 43.1794 26.3036 43.2996L25.0828 44.5209L25.9492 45.3873L27.171 44.1669C27.291 44.4122 27.3538 44.6814 27.3547 44.9545C27.3547 45.97 26.5318 46.7932 25.5159 46.7932Z" fill="black"/>
<path d="M30.4192 43.1158H38.3868V44.3419H30.4192V43.1158Z" fill="black"/>
<path d="M30.4192 45.5675H34.7094V46.7933H30.4192V45.5675Z" fill="black"/>
<path d="M35.9355 45.5675H38.387V46.7933H35.9355V45.5675Z" fill="black"/>
<path d="M48.8065 55.3741C53.8841 55.3741 57.9998 51.2577 57.9998 46.1805C57.9998 41.1028 53.8841 36.9868 48.8065 36.9868C43.7288 36.9868 39.6128 41.1028 39.6128 46.1805C39.6188 51.2554 43.7313 55.368 48.8065 55.3741ZM48.8065 38.2127C53.2067 38.2127 56.7742 41.78 56.7742 46.1805C56.7742 50.581 53.2067 54.1481 48.8065 54.1481C44.4058 54.1481 40.8384 50.581 40.8384 46.1805C40.8436 41.7821 44.4078 38.2176 48.8065 38.2127Z" fill="black"/>
<path d="M45.068 46.5191L43.9708 47.0669L45.1967 49.5186C45.2846 49.695 45.4524 49.8183 45.647 49.8498C45.6786 49.8547 45.7103 49.8573 45.7421 49.8578C45.9045 49.8578 46.0604 49.7931 46.1756 49.6782L53.5301 42.3234L52.6637 41.4567L45.9098 48.2102L45.068 46.5191Z" fill="black"/>
<g clip-path="url(#clip1_1_156)">
<path d="M23.0645 51.6967H39V50.4706H23.0645C22.049 50.4706 21.2258 49.6474 21.2258 48.6319V21.6642C21.2258 20.6484 22.049 19.8255 23.0645 19.8255H50.0322C51.0481 19.8255 51.8709 20.6484 51.8709 21.6642V35.7609H53.097V21.6642C53.095 19.9725 51.7241 18.6017 50.0322 18.5997H23.0645C21.3731 18.6017 20.0022 19.9725 20 21.6642V48.6319C20.0022 50.3236 21.3731 51.6944 23.0645 51.6967Z" fill="white"/>
<path d="M22.4518 21.0515H23.6774V22.2771H22.4518V21.0515Z" fill="white"/>
<path d="M24.9032 21.0515H26.1293V22.2771H24.9032V21.0515Z" fill="white"/>
<path d="M27.3549 21.0515H28.5808V22.2771H27.3549V21.0515Z" fill="white"/>
<path d="M22.4518 23.5029H50.6451V24.729H22.4518V23.5029Z" fill="white"/>
<path d="M28.7602 26.1342L27.2034 27.691C25.8875 26.8198 24.1253 27.0871 23.1266 28.3093C22.128 29.5314 22.2176 31.3115 23.3335 32.4273C24.4493 33.5435 26.2296 33.6331 27.4518 32.6344C28.6739 31.6358 28.9413 29.8733 28.07 28.5577L29.6266 27.0009L28.7602 26.1342ZM25.5159 32.0835C24.5006 32.0835 23.6773 31.2604 23.6773 30.2449C23.6773 29.2293 24.5006 28.4064 25.5159 28.4064C25.7893 28.4073 26.0583 28.47 26.3036 28.59L25.0828 29.8109L25.9492 30.6777L27.171 29.4575C27.291 29.7026 27.3538 29.9716 27.3547 30.2449C27.3547 31.2604 26.5318 32.0835 25.5159 32.0835Z" fill="white"/>
<path d="M30.4192 28.4064H40.8383V29.632H30.4192V28.4064Z" fill="white"/>
<path d="M30.4192 30.8579H34.7094V32.0835H30.4192V30.8579Z" fill="white"/>
<path d="M35.9355 30.8579H44.516V32.0835H35.9355V30.8579Z" fill="white"/>
<path d="M42.0645 28.4064H48.1935V29.632H42.0645V28.4064Z" fill="white"/>
<path d="M28.7602 33.4889L27.2034 35.0457C25.8875 34.1745 24.1253 34.4418 23.1266 35.664C22.128 36.8862 22.2176 38.6663 23.3335 39.7823C24.4493 40.8982 26.2296 40.9878 27.4518 39.9891C28.6739 38.9904 28.9413 37.2285 28.07 35.9124L29.6266 34.3556L28.7602 33.4889ZM25.5159 39.4384C24.5006 39.4384 23.6773 38.6151 23.6773 37.5997C23.6773 36.5841 24.5006 35.7608 25.5159 35.7608C25.7893 35.7619 26.0583 35.8247 26.3036 35.9447L25.0828 37.166L25.9492 38.0324L27.171 36.812C27.291 37.0574 27.3538 37.3264 27.3547 37.5997C27.3547 38.6151 26.5318 39.4384 25.5159 39.4384Z" fill="white"/>
<path d="M30.4192 35.7609H40.8383V36.9868H30.4192V35.7609Z" fill="white"/>
<path d="M30.4192 38.2126H34.7094V39.4384H30.4192V38.2126Z" fill="white"/>
<path d="M35.9355 38.2126H40.8385V39.4384H35.9355V38.2126Z" fill="white"/>
<path d="M42.0645 35.7609H44.516V36.9868H42.0645V35.7609Z" fill="white"/>
<path d="M28.7602 40.8438L27.2034 42.4006C25.8875 41.5294 24.1253 41.7967 23.1266 43.0189C22.128 44.2411 22.2176 46.0211 23.3335 47.1372C24.4493 48.2533 26.2296 48.3425 27.4518 47.344C28.6739 46.3453 28.9413 44.5832 28.07 43.2671L29.6266 41.7105L28.7602 40.8438ZM25.5159 46.7932C24.5006 46.7932 23.6773 45.97 23.6773 44.9545C23.6773 43.9389 24.5006 43.1158 25.5159 43.1158C25.7893 43.1167 26.0583 43.1794 26.3036 43.2996L25.0828 44.5209L25.9492 45.3873L27.171 44.1669C27.291 44.4122 27.3538 44.6814 27.3547 44.9545C27.3547 45.97 26.5318 46.7932 25.5159 46.7932Z" fill="white"/>
<path d="M30.4192 43.1158H38.3868V44.3419H30.4192V43.1158Z" fill="white"/>
<path d="M30.4192 45.5675H34.7094V46.7933H30.4192V45.5675Z" fill="white"/>
<path d="M35.9355 45.5675H38.387V46.7933H35.9355V45.5675Z" fill="white"/>
<path d="M48.8065 55.3741C53.8841 55.3741 57.9998 51.2577 57.9998 46.1805C57.9998 41.1028 53.8841 36.9868 48.8065 36.9868C43.7288 36.9868 39.6128 41.1028 39.6128 46.1805C39.6188 51.2554 43.7313 55.368 48.8065 55.3741ZM48.8065 38.2127C53.2067 38.2127 56.7742 41.78 56.7742 46.1805C56.7742 50.581 53.2067 54.1481 48.8065 54.1481C44.4058 54.1481 40.8384 50.581 40.8384 46.1805C40.8436 41.7821 44.4078 38.2176 48.8065 38.2127Z" fill="white"/>
<path d="M45.068 46.5191L43.9708 47.0669L45.1967 49.5186C45.2846 49.695 45.4524 49.8183 45.647 49.8498C45.6786 49.8547 45.7103 49.8573 45.7421 49.8578C45.9045 49.8578 46.0604 49.7931 46.1756 49.6782L53.5301 42.3234L52.6637 41.4567L45.9098 48.2102L45.068 46.5191Z" fill="white"/>
</g>
</g>
<defs>
<linearGradient id="paint0_linear_1_156" x1="37" y1="0" x2="37" y2="74" gradientUnits="userSpaceOnUse">
<stop stop-color="#8A7FD9"/>
<stop offset="1" stop-color="#402F8F"/>
</linearGradient>
<clipPath id="clip0_1_156">
<rect width="38" height="38" fill="white" transform="translate(20 18)"/>
</clipPath>
<clipPath id="clip1_1_156">
<rect width="38" height="38" fill="white" transform="translate(20 18)"/>
</clipPath>
</defs>
</svg>
